<svg xmlns="http://www.w3.org/2000/svg" viewBox="0 0 55.64 54.62"><defs><style>.cls-1{fill:#fff;}</style></defs><g id="Capa_2" data-name="Capa 2"><g id="Capa_1-2" data-name="Capa 1"><path class="cls-1" d="M19.26,23.66c-.24.28-.07.31.16.29.56-.06,1.14-.08,1.48-.11s.25-.06.18-.18a.55.55,0,0,1-.07-.43c0-.11,0-.11-.22-.09a2.37,2.37,0,0,0-1.53.52m4.15-1.51c-1.25-.8-3.58-.32-4.17.58-.07.13,0,.35.27.19a6,6,0,0,1,3.78-.41c.31.08.32-.23.12-.36m.6,2c.07-.2.25-.47.18-.6a.63.63,0,0,0-.36-.27,3.79,3.79,0,0,0-.72-.24c-.08,0-.16.05-.13.23a.74.74,0,0,1-.18.52.15.15,0,0,0,.12.24,2.54,2.54,0,0,1,.8.19c.2.1.25.07.29-.07m7.44-1.27a5.38,5.38,0,0,0-1.18.42.78.78,0,0,0-.33.34.81.81,0,0,0,0,.48c0,.14,0,.21.2.11a5.49,5.49,0,0,1,1.48-.55.16.16,0,0,0,.13-.24.92.92,0,0,1-.09-.47c0-.18-.08-.11-.17-.09M35.06,22a3.27,3.27,0,0,0-4.21.18c-.16.18,0,.36.27.18a5.06,5.06,0,0,1,3.71-.13c.31.12.33-.13.23-.23m.49,1.33A2.7,2.7,0,0,0,34,22.62c-.18,0-.27,0-.23.09a.5.5,0,0,1-.06.43c-.07.13-.05.17.18.18a9.31,9.31,0,0,1,1.5.27c.23.06.4,0,.16-.29M19,42.52a16.15,16.15,0,0,1,.87-1.59,3.24,3.24,0,0,0,.44-1,5.61,5.61,0,0,0,.12-1.22.21.21,0,0,1,.26-.14c.12.08.22.32.44.25a.73.73,0,0,0,.41.18c0,.29.35.64,0,.88,0,.26.1.58-.11.76a7.75,7.75,0,0,1-.33.79c-.06.1-.26,0-.21.21a2.82,2.82,0,0,0-1.11,2c-.29.39-.06.85,0,1.22-.06.72.16,1.56-.42,2-.14.33-.15.72-.43,1l-.09,0c0-.47.39-.86.32-1.4.39-.63-.22-1.06-.15-1.67-.13-.28-.08-.62-.26-.88.1-.42-.24-1,.18-1.42m2.61-8.06c.27.78-.27.48-.65.24a3.47,3.47,0,0,1-1.33-2.85,3.29,3.29,0,0,1,1.46-2.4,1.64,1.64,0,0,0,.86-.5c.16-.22.68-.72,1.17-.63s1.05.9.38,1.1c-.47.15-.33.81-.25,1a2.51,2.51,0,0,0,1.57,1.28,1.69,1.69,0,0,0,1.35,0c.17-.12.37-.11.68,0a.86.86,0,0,0,1,0,.76.76,0,0,1,.81,0,3.27,3.27,0,0,0,2-.13,1.41,1.41,0,0,0,.9-1.51,1,1,0,0,0-.85-.72c-.34,0-.56,0-.45-.4s1.07-1.13,1.59-.65A3.86,3.86,0,0,0,33.1,29a1.87,1.87,0,0,1,1.39,2.15,5.78,5.78,0,0,1-1.69,3.28.36.36,0,0,1-.6-.38,8.75,8.75,0,0,0,.27-1.77c0-.36-.14-.89-.45-.48-1.13,1.49-2.43,2.84-4.83,2.84a5,5,0,0,1-4-1.82c-.25-.43-.07-.5.18-.27a5.43,5.43,0,0,0,3.93,1.52,4.68,4.68,0,0,0,3.44-1.57c.31-.38.12-.37-.16-.18a6.83,6.83,0,0,1-3.21.74,8.71,8.71,0,0,1-4.07-1.52.84.84,0,0,0-1.3.24,2.74,2.74,0,0,0-.41,2.68m3.87.58a5.16,5.16,0,0,0,1.73.29A2.52,2.52,0,0,0,28.54,35c.68-.34,1.07.13.71.61a2.53,2.53,0,0,1-2.06,1.14,3.25,3.25,0,0,1-2.27-1.21c-.33-.38.09-.72.52-.54m-.34,5.22c.51.17,1.12-.1,1.59.11l.14.21,0,2.13c.35,1.57.36,8.33.63,9.85a4,4,0,0,0,0,1.09l0,.55c-.18-.11-.08-.37-.18-.54V54c0-.15,0-.33-.12-.43,0-.83-1.22-8.3-1.16-8.87-.29-.57-.12-1.31-.43-1.85,0-.26-.18-.43-.15-.7-.22-.32,0-.65-.26-1,0-.32-.3-.67-.12-.94M32.5,46c.34-.21.73-.07,1.09-.23.18,0,.31,0,.43-.13s-.12-.22-.11-.34h0c0-.16-.2-.29-.25-.43s-.05-.23,0-.38,0-.09,0-.12-.12-.22-.2-.27,0-.19.06-.19.2.23.31.34.07.12.11.19.1.24.18.34.13.25.23.3c-.09.15.16.15.1.27a.08.08,0,0,0,.1.06c0,.09.11,0,.17.07l.1-.13h0c.16-.12.2-.38.42-.4a1.39,1.39,0,0,0,.24-.34.51.51,0,0,0,.23-.38.17.17,0,0,1,.26.06c.13.18-.09.35-.11.52-.07,0-.11.08-.07.11s0,.33-.15.43c0,.08-.09.13-.05.24s-.11.19-.06.31c.24.18.62.08.9.21a.77.77,0,0,1,.52,0c.1,0,.22,0,.25.1s-.38.11-.57.24c-.31-.16-.6.13-.88.06,0,0-.14.06-.15.13a.73.73,0,0,0,0,.27s0,0,.06,0l-.06,0c.06.12.11.24.18.4s0,0,0,.07h0s0,.15.07.18,0,.1.06.09.11.08.06.21a.25.25,0,0,1,.1.26c-.08.09-.15,0-.24,0s0-.12-.1-.12a5.08,5.08,0,0,0-.27-.43c-.06-.15-.34-.2-.29-.38s-.19-.11-.19-.27-.28-.17-.38,0-.31.17-.38.35-.14.14-.27.17-.16.19-.16.33-.14.22-.27.28c0,.15-.17.11-.16.25s-.1.05-.17,0c0-.2.16-.29.23-.46l0,0,0,0c0-.1.11-.17.11-.26s.24-.17.2-.32l.06,0s0-.12,0-.18,0,0,0,0,0-.09,0-.16a.22.22,0,0,0,.09-.21h0a.42.42,0,0,0,0-.16c-.05-.09-.14,0-.2,0s-.15,0-.2-.06c-.36,0-.65-.21-1-.23-.1,0,0-.09,0-.14m5-36a8.6,8.6,0,0,1-.75-.56c0-.3-.3-.34-.44-.54s-.6-.72-.9-.29c.06.16-.11.19-.13.31a7,7,0,0,1-.11.94c0,.15,0,.23-.09.34s-.26,0-.33-.11a1.43,1.43,0,0,1,.12-.72c-.06-.22.07-.48-.05-.64s.09-.53-.09-.65-.09,0-.16,0l-.2,0a4.22,4.22,0,0,1-1.53.23c-.09-.17.07-.3.14-.39s.34-.08.42-.24c.18.07.23-.11.36-.11.2-.16.54-.15.67-.4a2.26,2.26,0,0,0-.52-.88c-.09-.06-.2-.09-.18-.2s0-.12,0-.18-.29-.29-.27-.46h0s0,0,.06,0,.21.26.41.29c0,.11.24.14.25.31a3,3,0,0,0,.95.76s0,.14.12.14.13-.36.2-.54-.09-.1,0-.18,0-.33.12-.38-.14-.29,0-.4c.08-.35,0-.8.15-1.08,0,0,0,.11.09.11a3.76,3.76,0,0,0,.09,1c-.16.08.15.2-.06.26.1.06,0,.23.13.31a.72.72,0,0,0,0,.64.5.5,0,0,0-.09.24c.23.2.53-.08.81,0s.28-.1.47,0,.36-.06.52-.11.21,0,.2.09-.29.12-.41.21c-.41.19-.78.49-1.22.66-.07,0-.22.09-.21.22s.33.3.38.5c.14,0,.11.22.24.18,0,.14.09,0,.14.11s.11.27.27.26c0,.12.08.15.09.23.27.09.35.46.56.6,0,.11,0,.22-.13.23m1.25,7.06c.11-.06.07-.21.23-.22.36-.45.82-.64,1.2-1.1a5,5,0,0,0-.95-1.15l-.07-.08c.29-.25.48.16.74.19s.42.28.53,0c.29-.25-.17-.47.05-.71a1.4,1.4,0,0,1,.09-.67c.37.09.11.6.31.81s-.16.71.2.79a.78.78,0,0,0,.77,0c.11,0,.17-.08.26-.11.38.1.58-.29.94-.19a.85.85,0,0,1,.62-.11A1.08,1.08,0,0,1,43,15c-.07.18-.31.1-.37.27-.29,0-.47.27-.67.38s-.39.24-.27.51a13,13,0,0,1,1.47,1.39c0,.05,0,.13-.08.14s-.13-.16-.28-.19c-.39-.07-.44-.58-.94-.51-.06-.16-.26-.15-.35-.25-.28,0-.17.41-.33.56,0,0,0,.07,0,.09s0,.27-.15.34c0,.13-.21.24-.16.44-.15.05,0,.28-.14.31l0,.21c-.1,0-.17.05-.22-.09s0-.17.06-.18l-.06-.11s0,0,.06-.05c-.08-.37.16-.91.14-1.43.12-.09,0-.11,0-.22-.29-.1-.59.08-.87.18s-.65.23-.89.49c-.12,0-.15-.13-.14-.25m2.32,23.87.15-.07,2,0s.12-.06.14-.11,0-.17-.09-.18-.23-.2-.23-.36A6.29,6.29,0,0,0,42,39.32c-.08-.11-.21-.2-.16-.4a.36.36,0,0,1,.46-.11c.06,0,.08.2.2.17s.13.21.25.18c.38.4.91.6,1.29,1,.22,0,.27-.3.43-.39-.06-.15.09-.12.14-.19.23-.08.3-.4.52-.49-.07-.23.2-.18.18-.39.07,0,.11-.19.21-.07s.07.13,0,.25h0c.09.28-.23.45-.14.75-.19.05-.07.31-.24.39a1.52,1.52,0,0,0-.1.72c0,.15.25,0,.34.16.2-.08.37.16.57,0a1.31,1.31,0,0,1,.82.22c-.05.18-.34.14-.48.24-.3-.13-.38.3-.66.14a1.15,1.15,0,0,0-.52.06c-.07.05,0,.21,0,.32s0,.25.13.27c-.05.32.28.41.34.61,0,0,0,0,.07,0-.17.14.19.15.09.33.06,0,0,.12.11.13s0,.2.13.29c-.12,0,0,.09-.09.14s-.13,0-.18,0c0-.41-.57-.42-.58-.8,0-.09-.11,0-.16-.07a1.18,1.18,0,0,0-.53-.57c-.11.09-.29.18-.33.34a.79.79,0,0,0-.34.38c-.09.08-.3.2-.29.35a5.48,5.48,0,0,1-.55.64c0,.14-.14.18-.21.26s-.14,0-.22-.06,0-.2,0-.32c.33-.16.15-.65.47-.78,0-.07.2-.11.08-.2a.76.76,0,0,0,.27-.4c-.08-.16.12-.14.1-.27s.16-.14.09-.23-.15-.16-.21-.25a1.59,1.59,0,0,1-.53-.08c-.27-.23-.77-.1-1.05-.38a3.27,3.27,0,0,1-.56-.11c0-.07-.13-.09,0-.16m5.76-9.13c0,.14-.14.18-.23.23a3.75,3.75,0,0,1-1.32.27c-.14.08-.15.28-.11.44s.27.36.29.56.23.21.23.32.15.23.11.42c-.25.11-.31-.17-.51-.29s-.17-.36-.37-.42c0-.16-.23-.13-.18-.28a.23.23,0,0,0-.36.1,1,1,0,0,1-.12.29c0,.19-.27.35-.23.52s-.21.28-.31.44c0,.37-.32.62-.49.85h-.09s0-.17.08-.23a2.94,2.94,0,0,1,.07-.76,1.18,1.18,0,0,0,.09-.55c.12-.07,0-.3.12-.36-.08-.23.17-.34,0-.54s-.37-.07-.52-.14a7.17,7.17,0,0,1-1.07.11c-.16,0-.3.11-.47,0,0-.1-.08-.24.08-.27a6.77,6.77,0,0,0,1.8-.67.22.22,0,0,0,0-.2c-.21-.12-.24-.33-.41-.47,0-.16-.38-.22-.17-.38.3,0,.43.28.71.36s.29.32.52.25c-.05-.25.15-.36.18-.59l0-.39s.09,0,.08-.09,0,.19.09.29a1.75,1.75,0,0,0,.09.78l.15.13a7.39,7.39,0,0,0,1-1h.16s-.08.12,0,.19c-.18.07-.2.32-.31.4a2.17,2.17,0,0,0-.31.52c0,.21.11.1.3.29.35,0,.55-.15.88-.11a.61.61,0,0,1,.54-.05M36.49,22c1.18,1.77.13,2.89-.58,2.74a10.76,10.76,0,0,0-5,0,2.14,2.14,0,0,0-1.28,1c-.14.24-.61.11-.88-.27a4,4,0,0,1-.18-2.65,4,4,0,0,1,3-2.59c2.56-.25,4.06.32,5,1.71m-7.07-8.67c0,.05-.11.07-.34.07-.43,0-1.14-.07-1.71-.14A47.63,47.63,0,0,0,28,7.86c.21-.82.27-6.68.33-7.43l0-.09c.18.14,0,.45.12.67s0,.23.06.36c.29.91.58,9,.74,9.39,0,.78.15,1.67.15,2.52m-2.08-.06h-.05c0-.06,0-.17.05-.31Zm-.17,15.26a.78.78,0,0,0,.33-.07,1.49,1.49,0,0,1,.77,0,2.25,2.25,0,0,0,1.24-.25c.12-.12.21,0,.2.28,0,.48-.79.95-1.73.88a.59.59,0,0,0-.56.26c-.11.11-.15.17-.25.17s-.13-.06-.24-.17a.72.72,0,0,0-.63-.3c-.94.06-1.65-.36-1.66-.84,0-.31.08-.4.2-.28a2.23,2.23,0,0,0,1.23.25,1.52,1.52,0,0,1,.78,0,.77.77,0,0,0,.32.07m-1.62-3a.66.66,0,0,1-.87.27,8.42,8.42,0,0,0-1.91-.68,5.6,5.6,0,0,0-.89-.21,21,21,0,0,1-2.33-.35,4,4,0,0,0-1.39.06c-1.6.68-1.25-.52-.22-2.22.68-1.13,2.25-2.28,4.92-2a4,4,0,0,1,2.87,2.5,4.25,4.25,0,0,1-.18,2.65M22.48,13.87c-.1.23-.27.16-.43.22s-.33.15-.44,0a3.5,3.5,0,0,0-.18-1c-.1-.2-.17-.54-.32-.6.1-.19-.09-.24-.13-.37a2.83,2.83,0,0,1-.55-1.86c0-.1-.08-.21,0-.33a8.34,8.34,0,0,1,0-1.42c-.24-1.71.1.64.25.87s.22.36.18.61a10.31,10.31,0,0,1,1.47,2.22c.19.36.09.84.27,1.19a.65.65,0,0,1-.07.53M19,16.2A4.89,4.89,0,0,1,18,17c-.39.07-.52-.42-.8-.58s-.51-.59-.9-.85a17.47,17.47,0,0,1-1.69-1.64c0-.17-.2-.16-.3-.23a8.44,8.44,0,0,0-1.43-1.23,1.24,1.24,0,0,0-.41-.33c-.36-.16-.53-.54-.91-.73,0-.08-.17-.15,0-.2.78.18,1.31.93,2.08,1.2a10.22,10.22,0,0,0,1.52,1,4.38,4.38,0,0,0,1.09.67,1.21,1.21,0,0,0,.75.46c.29.21.48.55.86.62.3.3.69.37,1,.7.09.08.36.18.21.35m-4.67,3.05a1.19,1.19,0,0,1,1.14.19c.13.17.34.29.35.5s-.18.49-.42.67c.07.22-.15.39-.29.48-.49-.16-1.11.07-1.49-.21a2.27,2.27,0,0,1-1.23-.46,12.32,12.32,0,0,0-1.25-.83c-.64-.05-1.15-.55-1.78-.41-.93-.19-1.87,0-2.82-.18A1.1,1.1,0,0,1,6,18.71l.06-.05c1.33.21,2.48-.5,3.75-.41.32.09.61,0,.91.14a7.15,7.15,0,0,0,3.66.86m-.71,5.44H14a11.36,11.36,0,0,1-.21,1.63c.1.2-.05.3-.21.33-2,0-12.3.29-12.87.5a.26.26,0,0,1-.25-.1c.14-.19.91,0,1.51-.21,1.09-.16,6.47-.54,7.45-.9.3-.15.71-.13,1-.35A1.13,1.13,0,0,0,11,25.4a20.77,20.77,0,0,0,2.63-.71m-.06,5.68c.2-.13.28-.33.55-.29l.15.46c0,.36.23.67.29,1a1.94,1.94,0,0,1,.35.61c0,.42-.39.4-.64.56-.2-.06-.32.09-.47.2-.61.05-1.23.14-1.81.15-.49.37-1.14.35-1.64.67-.42.1-.48.67-1,.65a5.34,5.34,0,0,1-1.23,1.11c-.44.41-.75,1-1.29,1.23,0-.49.69-.75.79-1.26a4.7,4.7,0,0,0,.9-1.14c.22-.28.65-.49.83-.8a5.54,5.54,0,0,1,2.13-1,4.48,4.48,0,0,0,2-2.16m1.47,7c.18-.28.2-.64.43-.87,0-.26.3-.37.26-.65.37-.23.21-.88.73-.91.33.24.43.58.71.83,0,.13.13.21.08.37-.08,0-.09.1-.08.17-.37.28-.54.59-.85.86,0,.36-.49.4-.49.75-.44.6-1.06,1.11-1.44,1.74-.45.47-.68,1-1.11,1.46-.11.17-.23.49-.5.44-.1,0-.06-.19,0-.23.53-.83,1-1.7,1.46-2.55.45-.39.41-1,.82-1.41M47.39,24.56h0c0-.22.32-.37.53-.51.25.12.37-.2.63-.18.17-.21.82-.05.65-.5-.17-.13-.27-.36-.52-.37a.15.15,0,0,0-.16-.14c-.11.05,0-.1-.09-.09-.16-.28-.68-.3-.62-.72.3,0,.46.19.67.29a4.34,4.34,0,0,1,1.11.46c.09.07.18,0,.27-.05s.16-.24.1-.34c.14,0,.08-.16.15-.24s0-.33.18-.45-.07-.23,0-.29c-.11-.2.2-.21.11-.34.09,0,.16.12.11.23a4.44,4.44,0,0,1,0,.53c-.06,0-.05.1-.06.16s0,.48.16.6c0,.18.06.24.18.34.16-.24.55-.15.77-.33.09,0,.09-.06.16-.09a8.16,8.16,0,0,0,1-.25.1.1,0,0,1,0,.16A6.83,6.83,0,0,0,52,23l-.09.12c0-.08-.09,0-.14,0s-.1.07-.18.14-.55.24-.36.52c.07,0,.06.16.16.16.09.16.27.15.38.29.27.14.56.27.65.54-.4,0-.79-.15-1.23-.11l0-.05s0,0,0,.05c-.19,0-.46-.15-.6,0-.3.12-.16.52-.4.65s0,.27-.14.44a.44.44,0,0,1-.24.36c-.07.13,0,.32-.23.39s-.23,0-.18-.18.13-.17.14-.34l.09-.16V25c.1,0,0-.2.06-.24a.06.06,0,0,1,0-.09c0-.1,0-.26,0-.29s-.09-.11-.11-.14c-.18-.06-.32.1-.48.09a3.35,3.35,0,0,0-.9.19c-.24,0-.56.36-.73.06M17.58,49.8a.63.63,0,0,0-.09.67.49.49,0,0,0,.56.29v0c.48-.13.31-.72.76-.91.15-.31.57-.47.61-.84a24,24,0,0,0,1.88-2c-.1-.27.24-.36.17-.61a10.17,10.17,0,0,1,.39-1.49c-.11-.31.18-.66.19-.92a20.58,20.58,0,0,0,1.84-2.39c.07,0,.1.06.15.09a27.17,27.17,0,0,0,.84,4.11c.17.17,1.69,7.88,1.78,8.84a7.64,7.64,0,0,0,1.27,0h0A27.29,27.29,0,0,0,29,.06h0c-.75,0-1-.08-1.69,0-.27.24-1.56,8.09-1.74,8.38a18.17,18.17,0,0,0-.69,3.36,8.62,8.62,0,0,1-.76,1.88,4,4,0,0,1-1.1-1.31,2.4,2.4,0,0,0-.38-1.39A25.51,25.51,0,0,0,20.33,7a1,1,0,0,1-.33-.5c0-.12-.22-.17-.19-.31a3.32,3.32,0,0,1-.44-1.53A.36.36,0,0,0,19,4.41a.94.94,0,0,0-.5.52c0,.32-.28.55-.36.86a4.12,4.12,0,0,0,0,2.49c0,.36.2.54.29.87.37.41.41,4.83.38,5.21-.08.06-8.2-4.65-8.55-4.77-.16,0-.44-.12-.55.09s0,.42.17.52a8.92,8.92,0,0,0,.44,1c0,.15.27.25.18.4A15.9,15.9,0,0,0,12,13.69c.07.11.48,1.48.85,1.63a12.86,12.86,0,0,1,1.46,3.1c-.39-.15-1.48-.19-1.75-.29-.81-.55-7.5-1.14-8.2-.61.06,1,.82,1.55,1.49,2.25l5.27,2.16a8.14,8.14,0,0,0,1.65,2.32c-.1.1-1.71.26-1.65.52-.38.39-10.52,1.69-11.09,1.8a4,4,0,0,0,0,1.19c.23.08,1.08.15,1.45.23,1.43.09,9,1,11.62,1.93l-.45.77c-1.19.41-7.56,6.42-8,6.64,0,.25.26.26.38.41A34.25,34.25,0,0,0,9,37a6,6,0,0,0,1.08-.65,34.91,34.91,0,0,0,3.54-.56,3.31,3.31,0,0,0,1.06-.35l0,0a2.43,2.43,0,0,1-.23.93c-.63,1.4-3.91,7.8-4.24,8.4-.15.17-.14.43.06.5.44.16.73-.29,1-.55a.66.66,0,0,0,.44-.33c.07-.06.22-.11.23-.21.45-.12.62-.53,1-.73a10.69,10.69,0,0,0,2.43-1.69c.28-.07.14-.39.41-.47,0-.21.32-.4.44-.58a18.31,18.31,0,0,0,2.14-1.5c.19-.27.51-.66.87-.7-.09.53.25,1,.15,1.2,0,.4-.5.55-.65.91a3.5,3.5,0,0,1-.31.61c-.47.6-.16,5.38,0,5.33a.22.22,0,0,1,.08.23c-.13.15-.07.38-.25.5,0,.33-.35.43-.27.74-.2.14-.1.4-.3.54Z"/></g></g></svg>