<svg xmlns="http://www.w3.org/2000/svg" viewBox="0 0 76.14 76.22"><defs><style>.cls-1{fill:#1d1d1b;}</style></defs><g id="Capa_2" data-name="Capa 2"><g id="Capa_1-2" data-name="Capa 1"><path class="cls-1" d="M73.64,31.15a.13.13,0,0,1,0,.22,9.55,9.55,0,0,0-1.21.7l-.13.17c0-.11-.12,0-.19,0,0,.15-.14.1-.25.21-.21.26-.76.33-.5.72.1,0,.08.22.22.22.13.22.37.21.53.4.37.19.77.37.9.75-.56,0-1.1-.21-1.71-.15l0-.07s0,0,0,.07c-.27,0-.65-.21-.84,0-.42.17-.22.74-.55.92-.14.25-.07.37-.2.61a.62.62,0,0,1-.33.5c-.1.18-.07.44-.32.54-.1,0-.33,0-.25-.25s.18-.24.19-.47l.13-.23V34.91c.14,0,0-.29.08-.34s0-.11.07-.13.06-.36-.07-.4c0-.11-.12-.15-.15-.19-.25-.09-.46.14-.68.12a4.81,4.81,0,0,0-1.25.27c-.33,0-.79.49-1,.08h0c0-.31.45-.51.75-.71.34.17.51-.27.87-.25.23-.29,1.15-.07.9-.69-.24-.18-.38-.51-.72-.53a.21.21,0,0,0-.22-.19c-.16.07,0-.14-.13-.12-.22-.39-.94-.42-.86-1,.42-.06.64.26.93.4a6.18,6.18,0,0,1,1.55.64c.13.09.25,0,.38-.07s.22-.33.14-.47c.19,0,.11-.23.2-.34s0-.45.25-.62c0-.15-.09-.33.07-.42-.15-.27.28-.29.15-.47.13,0,.23.17.16.32a6,6,0,0,1,0,.75c-.08.06-.07.14-.08.22.19.21-.07.67.22.83-.05.25.09.34.25.47.24-.33.78-.2,1.08-.45.13,0,.13-.09.22-.13a13.14,13.14,0,0,0,1.44-.34m-8.4,13.26c.07.2-.2.25-.32.32a5.29,5.29,0,0,1-1.84.37.58.58,0,0,0-.16.63c.06.29.38.5.4.77s.32.29.32.45.21.32.16.58c-.35.16-.43-.24-.71-.4s-.24-.5-.51-.58c0-.23-.32-.18-.25-.39a.32.32,0,0,0-.5.14c-.07.12-.08.29-.18.4s-.38.48-.32.72-.29.4-.43.62c0,.51-.44.86-.68,1.18H60.1c0-.07,0-.24.11-.32a4.19,4.19,0,0,1,.09-1,1.6,1.6,0,0,0,.13-.78c.17-.1,0-.41.17-.5-.12-.32.23-.47,0-.75s-.52-.09-.72-.19a9.19,9.19,0,0,1-1.5.15c-.22,0-.42.16-.65.07,0-.14-.11-.33.11-.37a9.52,9.52,0,0,0,2.51-.94.3.3,0,0,0,0-.28c-.29-.17-.33-.46-.57-.65,0-.22-.54-.31-.23-.53.41,0,.59.39,1,.5.22.1.4.44.72.35-.07-.35.21-.5.25-.82l0-.55c.07,0,.13-.06.11-.13.2,0,.07.26.14.4a2.08,2.08,0,0,0,.13,1.1l.2.18a9.86,9.86,0,0,0,1.38-1.44h.22a.34.34,0,0,0-.07.28c-.25.09-.28.44-.43.55a3.12,3.12,0,0,0-.43.72c0,.29.15.15.42.41.48,0,.76-.21,1.23-.16a.84.84,0,0,1,.75-.07m-4.4-24.12a1.57,1.57,0,0,1-.94.76c-.1.24-.43.14-.52.36-.4,0-.66.38-.93.54s-.54.33-.38.71a19.08,19.08,0,0,1,2.06,1.94c0,.07,0,.17-.12.19s-.18-.23-.39-.26c-.55-.11-.62-.82-1.31-.71-.09-.23-.36-.21-.49-.35-.39,0-.24.57-.46.78,0,0,0,.09,0,.12-.19.09,0,.38-.2.47,0,.19-.3.35-.23.62-.21.07,0,.38-.19.44l0,.29c-.14,0-.24.07-.31-.14s0-.22.08-.24l-.08-.16s0,0,.08-.07c-.12-.51.23-1.26.19-2,.18-.12-.07-.15,0-.31-.42-.14-.83.12-1.21.26-.35.33-.92.31-1.25.68C54,24.2,54,24,54,23.87s.09-.29.31-.31c.5-.62,1.14-.88,1.68-1.53a7,7,0,0,0-1.33-1.61l-.09-.1c.4-.35.66.23,1,.26s.59.4.75,0c.4-.35-.25-.66.07-1a1.85,1.85,0,0,1,.12-.93c.52.12.15.83.43,1.12.1.4-.22,1,.28,1.11a1.08,1.08,0,0,0,1.07-.05c.16.05.24-.11.37-.16.53.14.81-.4,1.31-.26a1.16,1.16,0,0,1,.87-.15M52.63,9.57c-.11.17-.4.17-.56.29-.57.26-1.08.69-1.71.93-.1.07-.3.12-.29.3,0,.34.46.42.53.7.19.05.15.3.34.24,0,.2.13.06.2.16s.15.39.37.37c0,.17.11.21.13.32.37.12.48.64.77.83,0,.15,0,.31-.18.32-.34-.29-.73-.46-1-.78,0-.41-.43-.47-.62-.74-.4-.1-.83-1-1.25-.42.09.22-.15.26-.18.44A10.14,10.14,0,0,1,49,13.84c.06.2-.07.31-.12.47-.23,0-.36,0-.48-.16a1.91,1.91,0,0,1,.18-1c-.09-.31.1-.67-.08-.9,0-.25.14-.74-.12-.9-.06-.11-.13.05-.22,0l-.28,0a5.77,5.77,0,0,1-2.14.32c-.12-.23.1-.41.2-.54s.48-.11.59-.33c.25.1.32-.15.5-.15.28-.22.75-.21.93-.57a3,3,0,0,0-.72-1.22c-.12-.08-.28-.12-.25-.28s0-.16,0-.25c-.17-.19-.41-.4-.38-.65h0c0-.07,0,0,.09-.07.16.14.29.38.57.42.06.15.33.19.34.43a4.13,4.13,0,0,0,1.33,1.05c.06,0,0,.2.17.2s.18-.5.28-.75c0-.1-.13-.14-.07-.25s0-.46.16-.53c.1-.25-.19-.41,0-.57.11-.48,0-1.1.21-1.49,0,0,0,.15.12.15a5.56,5.56,0,0,0,.13,1.44c-.22.11.21.29-.08.38.13.08,0,.31.18.42a1,1,0,0,0,0,.89.66.66,0,0,0-.12.33c.32.28.73-.11,1.14,0,.26,0,.38-.14.65,0,.25-.06.5-.09.72-.16s.29,0,.27.13M57.2,57.13l.22-.09c1,0,1.85,0,2.8.07.07-.06.17-.09.2-.16s0-.23-.13-.25c0-.2-.32-.27-.32-.49a9.24,9.24,0,0,0-1.47-1.32c-.11-.15-.29-.28-.22-.55a.51.51,0,0,1,.64-.16c.08.07.11.28.28.24s.18.29.34.25c.54.55,1.28.84,1.8,1.38.31,0,.38-.41.6-.54-.08-.22.14-.16.21-.27.32-.11.41-.56.72-.68-.1-.32.28-.25.25-.54.1,0,.15-.27.29-.1s.1.18.05.35h0c.12.38-.32.62-.2,1-.26.09-.09.45-.33.56a2.15,2.15,0,0,0-.14,1c0,.2.35,0,.47.22.28-.11.52.22.79,0a1.81,1.81,0,0,1,1.15.3c-.07.27-.47.2-.66.35-.43-.19-.54.42-.93.19a1.59,1.59,0,0,0-.72.09c-.1.07,0,.29-.06.44.13.07,0,.35.18.37-.07.45.39.57.47.85,0,0,.06,0,.1,0-.23.2.26.21.13.48.08,0,0,.16.15.18s0,.27.18.4c-.17,0,0,.12-.13.19s-.18,0-.25,0c0-.57-.79-.59-.8-1.13,0-.12-.15,0-.22-.09a1.56,1.56,0,0,0-.75-.79c-.15.12-.4.25-.46.47a1.13,1.13,0,0,0-.47.52c-.12.13-.41.3-.4.5a8,8,0,0,1-.76.89c0,.19-.21.25-.31.36s-.19,0-.3-.08,0-.28,0-.45c.46-.22.21-.9.66-1.08,0-.11.28-.16.11-.29a1,1,0,0,0,.38-.55c-.11-.22.16-.2.14-.38s.22-.19.12-.31c.06-.23-.21-.23-.29-.35a2.43,2.43,0,0,1-.75-.11c-.37-.32-1.06-.14-1.45-.54a6.5,6.5,0,0,1-.79-.15c0-.1-.18-.13-.06-.23M41.1,18.6c.11.2-1.66.06-3-.09A68.9,68.9,0,0,0,39,11.05c.29-1.14.37-9.31.45-10.36l.09-.17c.37.15.12.65.24,1,.15.12,0,.32.08.49.41,1.27.81,12.53,1,13.1,0,1.08.21,2.33.21,3.5m10.58,46c-.14.28-.53.15-.8.33-.43-.22-.83.18-1.22.08-.07,0-.2.09-.21.19a.74.74,0,0,0,.06.37s0,.06.07,0l-.07.06c.07.16.15.33.24.56,0,0,.08,0,0,.1h0s0,.2.1.24,0,.14.08.12c-.06.17.15.12.09.3a.34.34,0,0,1,.13.36c-.11.13-.21-.07-.33-.06s0-.17-.15-.17a3.82,3.82,0,0,0-.37-.59c-.08-.2-.47-.28-.4-.53-.11-.14-.27-.15-.27-.37-.15,0-.38-.25-.53-.06s-.43.23-.52.48c-.15.09-.2.2-.38.24,0,.18-.22.27-.22.46-.19.11-.2.31-.38.4.07.2-.24.15-.22.34a.21.21,0,0,1-.24,0c-.06-.27.22-.39.32-.64l.07,0-.05,0c0-.13.16-.23.16-.35S47,66.17,47,66l.07,0c-.05,0,0-.17,0-.26s0,0,.06,0-.05-.12,0-.22a.29.29,0,0,0,.12-.3h0a.54.54,0,0,0,0-.22c-.07-.12-.19,0-.28-.06-.1.12-.2,0-.28-.08-.5,0-.91-.3-1.42-.32-.14,0,0-.12,0-.2.48-.28,1-.1,1.52-.32.26,0,.43,0,.6-.18s-.17-.31-.15-.47h0c0-.22-.28-.4-.34-.6s-.07-.32-.06-.52c-.11,0,0-.13,0-.18s-.17-.3-.28-.36-.07-.27.08-.28.29.32.44.47c0,.17.1.18.15.27s.14.34.25.48.19.34.32.42c-.12.21.22.21.14.38a.1.1,0,0,0,.14.07c0,.13.15.07.24.1l.14-.17,0,0c.24-.16.29-.52.6-.55a2.14,2.14,0,0,0,.33-.48.69.69,0,0,0,.33-.52c.14-.12.27,0,.35.08s-.12.49-.16.72c-.08,0-.15.11-.1.15-.09.22,0,.47-.19.6,0,.11-.14.19-.08.35s-.15.26-.08.43c.33.24.86.1,1.25.29a1,1,0,0,1,.72,0c.15,0,.31,0,.36.15M76.14,38.15a38,38,0,0,0-38-38V20c1,0,1.9.06,2.85.13,1.22.4,2.6.45,3.67,1.22.83.46,2,.51,2.65,1.39.66.31,1.12.89,1.79,1.23a17.44,17.44,0,0,1,3.57,3.86,16.72,16.72,0,0,1,.59,18c-.32.31-.37.85-.78,1.14s-.21.73-.61.85a1.45,1.45,0,0,1-.48.58,19,19,0,0,1-5.06,4.31,4.5,4.5,0,0,1-1.75.87c0,.36-.36,0-.53.15a3.46,3.46,0,0,1-1.19.38c-.38.39-.89.24-1.34.44-.22.25-.62,0-.9.2A9.18,9.18,0,0,1,38.1,55V68.45c.08,2.16.18,4.08.32,4.9a5.45,5.45,0,0,0,0,1.51l0,.82c-.38-.1-.2-.54-.35-.8v1.31a38,38,0,0,0,38-38"/><path class="cls-1" d="M52.54,28a16.68,16.68,0,0,1,.59,18c-.32.3-.37.85-.78,1.14s-.2.73-.61.85a1.43,1.43,0,0,1-.48.57,19,19,0,0,1-5.06,4.32,4.37,4.37,0,0,1-1.75.87c0,.35-.36,0-.53.15a3.38,3.38,0,0,1-1.19.37c-.37.39-.88.24-1.34.45-.22.25-.61,0-.9.2a17.25,17.25,0,0,1-3.67.17,18.55,18.55,0,0,1-5.95-1.46,24,24,0,0,1-5.06-3.35c-.28-.48-.7-.66-.94-1.14-1-.71-1.27-1.83-2.09-2.73,0-.28-.31-.33-.36-.58-.27-.36-.22-.85-.52-1.17a2.83,2.83,0,0,0-.38-.91c-.13-.66-.56-1.17-.57-1.88-.23-.26-.06-.72-.16-1a3.41,3.41,0,0,1-.29-1.8s0-.38,0-.49A16.9,16.9,0,0,1,21.69,31c0-.54.51-.85.48-1.39a12.91,12.91,0,0,0,1.36-2.21c.46-.29.56-.83.93-1.17A12.44,12.44,0,0,1,27,23.78,31.25,31.25,0,0,1,30,21.89l.15-.15c1.65-.49,3.13-1.36,4.95-1.43a2.41,2.41,0,0,0,1.31-.2c1.53,0,3,.05,4.48.15,1.23.41,2.6.46,3.67,1.23.84.45,2,.51,2.65,1.39.67.3,1.13.88,1.79,1.22A17,17,0,0,1,52.54,28M41,18.6c.1.2-1.66.06-3-.09a66.48,66.48,0,0,0,.86-7.46c.29-1.14.37-9.31.46-10.36l.08-.17c.38.15.12.65.24,1,.15.11,0,.32.09.49.4,1.27.8,12.53,1,13.1,0,1.08.21,2.33.21,3.5m-9.67.83c-.13.32-.38.22-.6.3s-.46.21-.61-.05a5.53,5.53,0,0,0-.25-1.43c-.15-.28-.25-.75-.45-.83.14-.26-.13-.34-.18-.51a4,4,0,0,1-.77-2.6c0-.14-.1-.3,0-.46a11.82,11.82,0,0,1,0-2c-.35-2.39.13.89.33,1.21s.31.51.26.85A14.5,14.5,0,0,1,31.05,17c.26.5.13,1.17.38,1.65a1,1,0,0,1-.1.75m-4.79,3.24a7,7,0,0,1-1.43,1.11c-.55.08-.72-.6-1.11-.82-.56-.32-.71-.81-1.25-1.19a23.11,23.11,0,0,1-2.37-2.27c0-.24-.27-.22-.4-.33a12.7,12.7,0,0,0-2-1.71,1.73,1.73,0,0,0-.56-.46c-.51-.22-.75-.75-1.27-1,0-.1-.24-.2,0-.27C17.19,16,17.92,17,19,17.37a14.66,14.66,0,0,0,2.12,1.4,6.34,6.34,0,0,0,1.52.93,1.71,1.71,0,0,0,1.05.65c.41.29.66.76,1.19.86.43.41,1,.51,1.38,1,.12.12.49.26.29.49M20,26.92a1.68,1.68,0,0,1,1.58.27c.19.24.47.41.49.7-.19.32-.25.68-.58.93.09.31-.22.54-.4.66-.68-.22-1.55.1-2.08-.29a3,3,0,0,1-1.71-.64,19.65,19.65,0,0,0-1.75-1.16c-.89-.07-1.6-.76-2.49-.56-1.29-.27-2.6,0-3.92-.25a1.6,1.6,0,0,1-.82-.41l.09-.07c1.85.29,3.45-.7,5.22-.58.44.14.85,0,1.27.21,1.63.63,3.18,1.46,5.1,1.19M19,34.5h.41a14.81,14.81,0,0,1-.29,2.28c.14.27-.07.41-.29.46-2.82,0-17.14.41-17.94.7a.38.38,0,0,1-.34-.14c.19-.27,1.26,0,2.09-.31,1.53-.22,9-.74,10.4-1.24.4-.22,1-.18,1.39-.49a1.56,1.56,0,0,0,.9-.27,26.44,26.44,0,0,0,3.67-1M19,42.42c.27-.18.39-.46.76-.41l.21.65c0,.49.32.93.4,1.43a2.93,2.93,0,0,1,.5.85c.05.59-.55.56-.9.78-.28-.09-.45.14-.65.29-.85.07-1.72.18-2.53.2-.68.51-1.58.49-2.28.94-.59.13-.68.93-1.34.9a6.91,6.91,0,0,1-1.72,1.54c-.61.58-1,1.47-1.8,1.72,0-.68,1-1,1.1-1.75A6.21,6.21,0,0,0,12,48c.31-.39.9-.68,1.16-1.1a7.59,7.59,0,0,1,3-1.43,6.29,6.29,0,0,0,2.86-3m2,9.79c.25-.39.28-.9.61-1.22,0-.36.41-.51.35-.9.51-.33.29-1.23,1-1.28.46.34.6.82,1,1.16,0,.18.19.3.12.52-.12,0-.14.14-.12.24-.51.39-.75.82-1.19,1.19,0,.51-.68.56-.68,1.06-.61.83-1.48,1.54-2,2.41-.63.66-1,1.32-1.55,2-.15.24-.32.68-.7.61-.13-.07-.08-.25,0-.32.75-1.16,1.37-2.37,2-3.55.63-.55.58-1.38,1.14-2m6.64,4.93a4.38,4.38,0,0,0,.61-1.39c.24-.63.05-1.08.17-1.7a.3.3,0,0,1,.36-.21c.17.12.31.46.61.36a1,1,0,0,0,.58.25c0,.4.47.89,0,1.23-.05.35.14.8-.15,1a9.63,9.63,0,0,1-.46,1.11c-.08.13-.36,0-.29.28A3.93,3.93,0,0,0,27.56,61c-.41.54-.09,1.19.05,1.7-.09,1,.22,2.17-.58,2.82-.2.46-.22,1-.61,1.39l-.12,0c0-.66.54-1.2.44-2,.54-.89-.31-1.48-.2-2.33-.19-.39-.12-.87-.36-1.22.14-.6-.34-1.43.24-2a22.35,22.35,0,0,1,1.22-2.21M35,56.2c.72.24,1.57-.13,2.21.16l.21.29,0,3c.49,2.19.51,11.6.89,13.73a5.45,5.45,0,0,0,0,1.51l0,.82c-.43-.11-.15-.63-.41-.87,0-1.16-1.7-11.57-1.62-12.37-.4-.78-.17-1.82-.61-2.56,0-.38-.23-.62-.2-1-.31-.44,0-.9-.36-1.38,0-.44-.42-.93-.17-1.31M41.7,18.76C42,16,40.52,1.13,40.45.17A5.34,5.34,0,0,0,38.1.1c-.38.34-2.17,11.29-2.42,11.68a25.36,25.36,0,0,0-1,4.69,11.08,11.08,0,0,1-1.06,2.62,5.51,5.51,0,0,1-1.53-1.83,3.36,3.36,0,0,0-.52-1.93c-.27-1.15-3.26-5.42-3.26-5.42a1.47,1.47,0,0,1-.46-.69c-.05-.17-.31-.24-.27-.45A4.43,4.43,0,0,1,27,6.65a.52.52,0,0,0-.58-.41,1.35,1.35,0,0,0-.7.73c0,.44-.39.77-.49,1.19-.26.41-.5,2.81,0,3.47,0,.51.29.76.41,1.22.51.56.58,6.73.53,7.26-.1.08-11.42-6.48-11.91-6.65-.23,0-.62-.17-.77.12s0,.6.24.73a11.42,11.42,0,0,0,.61,1.4c0,.2.37.34.26.56a21.36,21.36,0,0,0,2.19,2.9c.1.16.68,2.06,1.19,2.28a18.29,18.29,0,0,1,2,4.32c-.55-.21-2.08-.27-2.45-.41-1.12-.76-10.45-1.58-11.42-.85.08,1.41,1.14,2.16,2.07,3.14,0,0,6.72,2.74,7.34,3,.55,1,1.65,2.89,2.3,3.23-.14.14-2.38.36-2.3.73C15,35.17.86,37,.07,37.13a5.42,5.42,0,0,0,0,1.66c.32.11,1.51.21,2,.31,2,.14,12.57,1.42,16.2,2.69l-.63,1.07c-1.67.58-10.54,9-11.1,9.27,0,.34.36.35.53.56a47.34,47.34,0,0,0,5.47-1.09,7.44,7.44,0,0,0,1.51-.9A46.86,46.86,0,0,0,19,49.92a4.47,4.47,0,0,0,1.48-.5l0,0a3.35,3.35,0,0,1-.32,1.3c-.88,1.95-5.45,10.87-5.91,11.71a.42.42,0,0,0,.08.69c.61.22,1-.41,1.43-.76a1,1,0,0,0,.61-.46c.1-.09.31-.15.32-.29.63-.17.87-.75,1.46-1a14.78,14.78,0,0,0,3.39-2.36c.39-.1.2-.55.57-.65.06-.3.45-.56.62-.81a27.42,27.42,0,0,0,3-2.09c.27-.38.71-.92,1.22-1-.12.72.34,1.44.21,1.66,0,.56-.7.77-.9,1.28a5.29,5.29,0,0,1-.44.85c-.65.83-.23,7.49,0,7.42a.3.3,0,0,1,.11.33c-.18.2-.1.52-.35.69.07.46-.48.6-.38,1-.27.21-.13.56-.4.77l-.29,1.71a.9.9,0,0,0-.12.94.68.68,0,0,0,.78.41v-.07c.66-.19.42-1,1.05-1.28.21-.42.8-.64.85-1.17a28.55,28.55,0,0,0,2.62-2.79c-.14-.37.34-.49.24-.85a15.32,15.32,0,0,1,.54-2.07c-.15-.42.26-.92.27-1.27A29.8,29.8,0,0,0,33.3,58c.1,0,.13.09.2.12a38.11,38.11,0,0,0,1.18,5.73c.24.24,2.35,11,2.47,12.33a10.46,10.46,0,0,0,1.77,0,163.89,163.89,0,0,1,3.45-19.91c3.09-.29,11.86-5.73,13.69-15.06,1.44-7.32-.22-18.32-14.36-22.45"/><path class="cls-1" d="M39.88,35.55a5.47,5.47,0,0,1-.25-3.67,5.51,5.51,0,0,1,4.07-3.57c3.54-.34,5.61.44,6.89,2.36,1.63,2.45.18,4-.81,3.79-1.52-.31-4.87-.71-6.92.06a3,3,0,0,0-1.77,1.4c-.19.34-.84.16-1.21-.37m3.29-4.35c1.21-.81,3.88-.68,5.12-.18.43.17.46-.18.31-.32-1.18-1.05-4.22-1.55-5.8.25-.23.26,0,.5.37.25m3.66.53a.7.7,0,0,1-.09.59c-.09.18-.07.23.25.25a13.2,13.2,0,0,1,2.08.37c.31.08.55,0,.22-.4a3.62,3.62,0,0,0-2.15-.93c-.24,0-.37,0-.31.12m-3.21.2a7.75,7.75,0,0,0-1.63.58,1.11,1.11,0,0,0-.45.48,1,1,0,0,0-.06.65c0,.2,0,.3.28.15A7.87,7.87,0,0,1,43.81,33a.21.21,0,0,0,.17-.32,1.37,1.37,0,0,1-.13-.65c0-.25-.11-.16-.23-.13"/><path class="cls-1" d="M30.39,34.7a28,28,0,0,1-3.21-.49,6.11,6.11,0,0,0-1.93.08c-2.21,1-1.72-.71-.31-3.06.94-1.56,3.12-3.15,6.8-2.79,1.93.18,3.32,2,4,3.45a6,6,0,0,1-.25,3.66.9.9,0,0,1-1.21.37A11.38,11.38,0,0,0,31.62,35a6.59,6.59,0,0,0-1.23-.29M32.51,31c-1.73-1.1-4.95-.45-5.76.81-.11.17,0,.47.36.25a8.33,8.33,0,0,1,5.23-.56c.43.11.45-.31.17-.5m-3.63,1.37a3.2,3.2,0,0,0-2.11.71c-.33.4-.1.44.22.41.78-.08,1.58-.11,2.05-.16.31,0,.34-.07.25-.25a.7.7,0,0,1-.1-.59c.07-.15-.06-.15-.31-.12m3,.16a1,1,0,0,1-.25.71.22.22,0,0,0,.17.33,4.33,4.33,0,0,1,1.11.26c.27.15.34.1.4-.09s.34-.65.25-.83a.84.84,0,0,0-.5-.37,5.72,5.72,0,0,0-1-.34c-.12,0-.22.08-.19.33"/><path class="cls-1" d="M32.42,45.32a7.49,7.49,0,0,0,5.43,2.11,6.43,6.43,0,0,0,4.75-2.17c.43-.53.17-.51-.21-.25A9.45,9.45,0,0,1,38,46a12,12,0,0,1-5.63-2.12,1.17,1.17,0,0,0-1.8.35A3.8,3.8,0,0,0,30,48c.38,1.09-.38.67-.9.34a4.78,4.78,0,0,1-1.83-3.94,4.5,4.5,0,0,1,2-3.32,2.28,2.28,0,0,0,1.18-.69c.22-.3.94-1,1.61-.87s1.46,1.25.53,1.52c-.65.2-.46,1.12-.34,1.34a3.48,3.48,0,0,0,2.17,1.77,2.34,2.34,0,0,0,1.87,0c.23-.17.51-.15.93,0a1.22,1.22,0,0,0,1.34,0,1,1,0,0,1,1.11,0,4.36,4.36,0,0,0,2.77-.19,1.94,1.94,0,0,0,1.24-2.08,1.36,1.36,0,0,0-1.18-1c-.47-.06-.76-.06-.62-.56s1.48-1.56,2.2-.9a5.12,5.12,0,0,0,1.84,1,2.6,2.6,0,0,1,1.92,3,8.09,8.09,0,0,1-2.33,4.53.5.5,0,0,1-.84-.53A11.53,11.53,0,0,0,45,45c0-.5-.19-1.22-.62-.65-1.56,2.05-3.36,3.91-6.68,3.91-2.34,0-4.79-1.18-5.56-2.52-.34-.59-.09-.68.25-.37m5.28,3.85a3.44,3.44,0,0,0,1.89-.4c.95-.48,1.49.17,1,.84a3.55,3.55,0,0,1-2.86,1.58,4.54,4.54,0,0,1-3.14-1.68c-.45-.52.13-1,.72-.74a7.34,7.34,0,0,0,2.39.4m0-7.75c-.14,0-.19-.09-.34-.24a1,1,0,0,0-.86-.42c-1.3.09-2.29-.5-2.3-1.15,0-.43.1-.57.27-.4a3.09,3.09,0,0,0,1.71.35,2.06,2.06,0,0,1,1.08,0,1.12,1.12,0,0,0,.88,0,2,2,0,0,1,1.08,0,3.09,3.09,0,0,0,1.71-.35c.17-.17.28,0,.27.4,0,.65-1.09,1.31-2.39,1.21a.8.8,0,0,0-.77.36c-.15.15-.2.24-.34.24"/><path class="cls-1" d="M38,19.52A18.09,18.09,0,1,1,19.92,37.6,18.08,18.08,0,0,1,38,19.52m0,.84A17.24,17.24,0,1,0,55.25,37.6,17.24,17.24,0,0,0,38,20.36"/></g></g></svg>